<?xml version="1.0" encoding="UTF-8" standalone="no"?>
<!-- Generator: Adobe Illustrator 18.1.1, SVG Export Plug-In . SVG Version: 6.00 Build 0)  -->

<svg
   xmlns:dc="http://purl.org/dc/elements/1.1/"
   xmlns:cc="http://creativecommons.org/ns#"
   xmlns:rdf="http://www.w3.org/1999/02/22-rdf-syntax-ns#"
   xmlns:svg="http://www.w3.org/2000/svg"
   xmlns="http://www.w3.org/2000/svg"
   xmlns:sodipodi="http://sodipodi.sourceforge.net/DTD/sodipodi-0.dtd"
   xmlns:inkscape="http://www.inkscape.org/namespaces/inkscape"
   version="1.1"
   id="Capa_1"
   x="0px"
   y="0px"
   viewBox="0 0 26 26"
   style="enable-background:new 0 0 26 26;"
   xml:space="preserve"
   sodipodi:docname="hands.svg"
   inkscape:version="0.92.4 (f8dce91, 2019-08-02)"><metadata
   id="metadata1015"><rdf:RDF><cc:Work
       rdf:about=""><dc:format>image/svg+xml</dc:format><dc:type
         rdf:resource="http://purl.org/dc/dcmitype/StillImage" /><dc:title></dc:title></cc:Work></rdf:RDF></metadata><defs
   id="defs1013" /><sodipodi:namedview
   pagecolor="#ffffff"
   bordercolor="#666666"
   borderopacity="1"
   objecttolerance="10"
   gridtolerance="10"
   guidetolerance="10"
   inkscape:pageopacity="0"
   inkscape:pageshadow="2"
   inkscape:window-width="1920"
   inkscape:window-height="1025"
   id="namedview1011"
   showgrid="false"
   inkscape:zoom="22.953774"
   inkscape:cx="15.450879"
   inkscape:cy="18.213387"
   inkscape:window-x="0"
   inkscape:window-y="27"
   inkscape:window-maximized="1"
   inkscape:current-layer="Capa_1" />
<g
   id="g978"
   style="fill:#ffffff;fill-opacity:1"
   transform="matrix(0.47565743,-0.34995726,0.34995726,0.47565743,-3.621792,7.4035251)">
	<circle
   style="fill:#ffffff;fill-opacity:1"
   cx="21.732"
   cy="5.5"
   r="1.5"
   id="circle968" />
	<circle
   style="fill:#ffffff;fill-opacity:1"
   cx="17.732"
   cy="2.5"
   r="1.5"
   id="circle970" />
	<circle
   style="fill:#ffffff;fill-opacity:1"
   cx="13.732"
   cy="1.5"
   r="1.5"
   id="circle972" />
	<circle
   style="fill:#ffffff;fill-opacity:1"
   cx="9.7320004"
   cy="3.5"
   r="1.5"
   id="circle974" />
	<path
   style="fill:#ffffff;fill-opacity:1"
   d="M 20.232,5.5 V 12 c 0,0.276 -0.224,0.5 -0.5,0.5 -0.276,0 -0.5,-0.224 -0.5,-0.5 V 2.5 h -3 V 11 c 0,0.276 -0.224,0.5 -0.5,0.5 -0.276,0 -0.5,-0.224 -0.5,-0.5 V 1.5 h -3 V 11 c 0,0.276 -0.224,0.5 -0.5,0.5 -0.276,0 -0.5,-0.224 -0.5,-0.5 V 3.5 h -3 V 16 L 6.207,13.229 c -0.6,-0.925 -1.771,-1.235 -2.629,-0.705 -0.855,0.542 -1.067,1.724 -0.475,2.646 0,0 3.266,4.943 4.658,7.059 1.392,2.116 3.647,3.771 7.864,3.771 6.982,0 7.607,-5.392 7.607,-7 0,-1.608 0,-13.5 0,-13.5 z"
   id="path976"
   inkscape:connector-curvature="0" />
</g>
<g
   id="g980">
</g>
<g
   id="g982">
</g>
<g
   id="g984">
</g>
<g
   id="g986">
</g>
<g
   id="g988">
</g>
<g
   id="g990">
</g>
<g
   id="g992">
</g>
<g
   id="g994">
</g>
<g
   id="g996">
</g>
<g
   id="g998">
</g>
<g
   id="g1000">
</g>
<g
   id="g1002">
</g>
<g
   id="g1004">
</g>
<g
   id="g1006">
</g>
<g
   id="g1008">
</g>
<g
   transform="matrix(-0.41386894,-0.42122746,-0.42122746,0.41386894,30.109679,18.273778)"
   style="fill:#ffffff;fill-opacity:1"
   id="g1090">
	<circle
   id="circle1080"
   r="1.5"
   cy="5.5"
   cx="21.732"
   style="fill:#ffffff;fill-opacity:1" />
	<circle
   id="circle1082"
   r="1.5"
   cy="2.5"
   cx="17.732"
   style="fill:#ffffff;fill-opacity:1" />
	<circle
   id="circle1084"
   r="1.5"
   cy="1.5"
   cx="13.732"
   style="fill:#ffffff;fill-opacity:1" />
	<circle
   id="circle1086"
   r="1.5"
   cy="3.5"
   cx="9.7320004"
   style="fill:#ffffff;fill-opacity:1" />
	<path
   inkscape:connector-curvature="0"
   id="path1088"
   d="M 20.232,5.5 V 12 c 0,0.276 -0.224,0.5 -0.5,0.5 -0.276,0 -0.5,-0.224 -0.5,-0.5 V 2.5 h -3 V 11 c 0,0.276 -0.224,0.5 -0.5,0.5 -0.276,0 -0.5,-0.224 -0.5,-0.5 V 1.5 h -3 V 11 c 0,0.276 -0.224,0.5 -0.5,0.5 -0.276,0 -0.5,-0.224 -0.5,-0.5 V 3.5 h -3 V 16 L 6.207,13.229 c -0.6,-0.925 -1.771,-1.235 -2.629,-0.705 -0.855,0.542 -1.067,1.724 -0.475,2.646 0,0 3.266,4.943 4.658,7.059 1.392,2.116 3.647,3.771 7.864,3.771 6.982,0 7.607,-5.392 7.607,-7 0,-1.608 0,-13.5 0,-13.5 z"
   style="fill:#ffffff;fill-opacity:1" />
</g></svg>