<?xml version="1.0" encoding="UTF-8" standalone="no"?>
<!-- Generator: Adobe Illustrator 18.1.1, SVG Export Plug-In . SVG Version: 6.00 Build 0)  -->

<svg
   xmlns:dc="http://purl.org/dc/elements/1.1/"
   xmlns:cc="http://creativecommons.org/ns#"
   xmlns:rdf="http://www.w3.org/1999/02/22-rdf-syntax-ns#"
   xmlns:svg="http://www.w3.org/2000/svg"
   xmlns="http://www.w3.org/2000/svg"
   xmlns:sodipodi="http://sodipodi.sourceforge.net/DTD/sodipodi-0.dtd"
   xmlns:inkscape="http://www.inkscape.org/namespaces/inkscape"
   version="1.1"
   id="Capa_1"
   x="0px"
   y="0px"
   viewBox="0 0 26 26"
   style="enable-background:new 0 0 26 26;"
   xml:space="preserve"
   sodipodi:docname="hand.svg"
   inkscape:version="0.92.4 (f8dce91, 2019-08-02)"><metadata
   id="metadata1015"><rdf:RDF><cc:Work
       rdf:about=""><dc:format>image/svg+xml</dc:format><dc:type
         rdf:resource="http://purl.org/dc/dcmitype/StillImage" /><dc:title></dc:title></cc:Work></rdf:RDF></metadata><defs
   id="defs1013" /><sodipodi:namedview
   pagecolor="#ffffff"
   bordercolor="#666666"
   borderopacity="1"
   objecttolerance="10"
   gridtolerance="10"
   guidetolerance="10"
   inkscape:pageopacity="0"
   inkscape:pageshadow="2"
   inkscape:window-width="1920"
   inkscape:window-height="1025"
   id="namedview1011"
   showgrid="false"
   inkscape:zoom="22.953774"
   inkscape:cx="16.950629"
   inkscape:cy="12.10069"
   inkscape:window-x="0"
   inkscape:window-y="27"
   inkscape:window-maximized="1"
   inkscape:current-layer="Capa_1" />
<g
   id="g978"
   style="fill:#fffffb;fill-opacity:1">
	<circle
   style="fill:#fffffb;fill-opacity:1"
   cx="21.732"
   cy="5.5"
   r="1.5"
   id="circle968" />
	<circle
   style="fill:#fffffb;fill-opacity:1"
   cx="17.732"
   cy="2.5"
   r="1.5"
   id="circle970" />
	<circle
   style="fill:#fffffb;fill-opacity:1"
   cx="13.732"
   cy="1.5"
   r="1.5"
   id="circle972" />
	<circle
   style="fill:#fffffb;fill-opacity:1"
   cx="9.732"
   cy="3.5"
   r="1.5"
   id="circle974" />
	<path
   style="fill:#fffffb;fill-opacity:1"
   d="M20.232,5.5V12c0,0.276-0.224,0.5-0.5,0.5s-0.5-0.224-0.5-0.5V2.5h-3V11c0,0.276-0.224,0.5-0.5,0.5   c-0.276,0-0.5-0.224-0.5-0.5V1.5h-3V11c0,0.276-0.224,0.5-0.5,0.5s-0.5-0.224-0.5-0.5V3.5h-3V16l-2.025-2.771   c-0.6-0.925-1.771-1.235-2.629-0.705c-0.855,0.542-1.067,1.724-0.475,2.646c0,0,3.266,4.943,4.658,7.059S11.408,26,15.625,26   c6.982,0,7.607-5.392,7.607-7s0-13.5,0-13.5H20.232z"
   id="path976" />
</g>
<g
   id="g980">
</g>
<g
   id="g982">
</g>
<g
   id="g984">
</g>
<g
   id="g986">
</g>
<g
   id="g988">
</g>
<g
   id="g990">
</g>
<g
   id="g992">
</g>
<g
   id="g994">
</g>
<g
   id="g996">
</g>
<g
   id="g998">
</g>
<g
   id="g1000">
</g>
<g
   id="g1002">
</g>
<g
   id="g1004">
</g>
<g
   id="g1006">
</g>
<g
   id="g1008">
</g>
</svg>